<svg xmlns="http://www.w3.org/2000/svg" xmlns:xlink="http://www.w3.org/1999/xlink" width="31" height="31" viewBox="0 0 31 31"><defs><path id="ynb1a" d="M1478.29 49.74l-.16.27-.35 1.03a15.1 15.1 0 0 1-1.72 3.87c-.5.7-1.79 2.44-3.25 3.47-.68.48-1.43.81-2.14 1.13a8.4 8.4 0 0 0-2.6 1.52c-.7.56-1.49 1.2-2.57 1.3l-.36.04c-.68.06-1.21.1-1.76.42-1.92 1.14-2.15 3.68-2.1 6.27v.01c0 .35-.27.64-.62.65h-.01a.64.64 0 0 1-.64-.63c-.03-1.86-.1-5.72 2.73-7.4.81-.47 1.57-.53 2.3-.6l.34-.03c.72-.07 1.3-.54 1.9-1.04.3-.25.62-.5.96-.71.62-.4 1.29-.7 1.92-.98.69-.3 1.34-.6 1.93-1.01.9-.63 1.99-1.8 2.93-3.15a13.82 13.82 0 0 0 1.55-3.54l.37-1.07.02-.04.2-.4c.12-.2.42-.76.5-1.05-2.63-2.07-3.15-6.24-3.17-6.42a.64.64 0 1 1 1.27-.15c0 .05.51 3.98 2.83 5.67l.02.01c.76.6.13 1.73-.32 2.56zm12.7 6.69c-.13 3.25-1 6.1-2.55 8.43a13.68 13.68 0 0 1-6.8 5.25 16.72 16.72 0 0 1-5.58.89c-2.35 0-4.46-.48-6.27-1.41a7.8 7.8 0 0 1-2.68-2.4v-.01l-.02-.02c-.67-.9-.9-1.1-1.54-.85-.97.37-.97 2.4-.97 3.17 0 .35-.28.64-.64.64a.64.64 0 0 1-.64-.64c0-1.1 0-3.7 1.79-4.37 1.6-.63 2.42.49 3.02 1.3v.01a6.67 6.67 0 0 0 2.26 2.04c4.16 2.17 9.34 1.04 10.83.47 5.25-1.95 8.27-6.4 8.52-12.53a13.1 13.1 0 0 0-1.32-6.5 6.54 6.54 0 0 0-5.12-3.63c-.11-.02-.23-.02-.36-.02-.43 0-.91-.02-1.36-.28-.89-.51-3.15-3.16-3.28-5.3a.64.64 0 1 1 1.27-.08c.11 1.65 2.13 3.97 2.64 4.26h.02c.16.1.43.1.72.1.15 0 .3 0 .46.02h.03a7.9 7.9 0 0 1 6.1 4.3 14.44 14.44 0 0 1 1.47 7.16zm-3.2 4.13c-.48 1.5-1.4 2.88-2.78 4.23a14.44 14.44 0 0 1-4.5 2.94l-.51.27h-.21a12.39 12.39 0 0 1-4.1.67c-1.4 0-2.8-.24-4.12-.72a6.2 6.2 0 0 1-2.47-1.5 3.51 3.51 0 0 1-.9-3.18c.21-.96.86-1.75 1.79-2.23l.01-.04.3-.1a4.3 4.3 0 0 1 .6-.22l13.63-4.81.32-.45c.56-1 1.23-1.1 1.57-1.06h.03c.7.1 1.05.8 1.15 1.03.75 1.55.82 3.43.2 5.17z"/></defs><g><g transform="translate(-1460 -40)"><use fill="#98c722" xlink:href="#ynb1a"/></g></g></svg>