<svg xmlns="http://www.w3.org/2000/svg" xmlns:xlink="http://www.w3.org/1999/xlink" width="38" height="36" viewBox="0 0 38 36"><defs><path id="jhhva" d="M1297 61.55c0 1.88-.63 3.68-1.77 5.14-.2.26-.59.3-.83.07a.57.57 0 0 1-.07-.77 7.22 7.22 0 1 0-12.05-7.82 8.34 8.34 0 0 1 4.22 10.26 7.2 7.2 0 0 0 5.73-.62c.26-.15.6-.08.76.17.18.27.1.64-.18.8a8.3 8.3 0 0 1-6.76.7 8.36 8.36 0 0 1-15.05-.44c-.7.12-1.39.17-2.08.17-4.85 0-9.38-2.46-9.6-2.59a.56.56 0 0 1-.24-.73c.08-.19 2.03-4.46 5.58-7.4a9.5 9.5 0 0 1-.8-.58c-2.15-1.76-3.66-4.65-4.38-8.35a23.96 23.96 0 0 1-.45-5.07c.02-.3.25-.53.55-.54.1 0 2.31-.09 5.08.45 3.06.6 5.57 1.73 7.34 3.32 1.17-5.21 5.66-9.39 5.86-9.58.22-.2.56-.2.77 0 .04.04.8.73 1.77 1.9.2.25.17.61-.08.81-.24.2-.6.16-.8-.08a24 24 0 0 0-1.27-1.41c-1.17 1.18-4.63 5.03-5.28 9.35l.04.05a9.72 9.72 0 0 1 2.17 6 8.4 8.4 0 0 1 2.5-2.64v-1.66l-2.75-2.74a.57.57 0 1 1 .8-.8l1.95 1.94V45.8c0-.32.26-.58.59-.57.3 0 .55.28.55.6v3.03l1.94-1.94c.23-.23.6-.22.81.01.22.23.2.59-.02.8l-2.73 2.73v1.02a8.3 8.3 0 0 1 4.78-.7c.23-2.9-1.09-5.72-2.4-7.74a.57.57 0 1 1 .95-.62c1.44 2.22 2.88 5.35 2.57 8.62a8.38 8.38 0 0 1 3.62 2.18h.31c4.6 0 8.35 3.74 8.35 8.33zm-24-2.86l-1.74-1.73h-5.04a.57.57 0 0 1 0-1.13h3.9l-2.5-2.5h-3.88a.57.57 0 0 1 0-1.13h2.75l-2.17-2.17a.57.57 0 0 1 0-.8.57.57 0 0 1 .8 0l2.17 2.17v-2.75a.57.57 0 0 1 1.14 0v3.88l2.5 2.5v-3.9a.57.57 0 0 1 1.13 0v5.03l1.74 1.73c.63-3.47.07-6.3-1.66-8.4-1.12-1.35-3.35-3.14-7.7-3.98a24.28 24.28 0 0 0-4.28-.43c.01.8.08 2.44.44 4.3.47 2.38 1.54 5.65 3.98 7.66 2.1 1.73 4.94 2.29 8.42 1.65zm-1.67 2.93c.35-.63.77-1.2 1.26-1.7-.78.1-1.53.16-2.24.16-1.72 0-3.27-.33-4.63-.98-2.86 2.22-4.74 5.54-5.37 6.77 1.47.71 6.02 2.7 10.25 2.09a8.31 8.31 0 0 1 .1-4.94l-1.44.48-1.76 3.53a.57.57 0 0 1-1.02-.5l1.26-2.52-4.01 1.34a.57.57 0 0 1-.72-.36c-.1-.3.06-.62.36-.72l3.92-1.3-2.4-1.2a.57.57 0 1 1 .5-1.02l3.42 1.7zm7.3-3.16a7.22 7.22 0 1 0 0 0zm8.23-5.05a7.22 7.22 0 0 0-11.66 4.65 8.32 8.32 0 0 1 6.03-.32 8.31 8.31 0 0 1 5.63-4.33zm-3.43 12.57a2.63 2.63 0 1 1-5.26 0 2.63 2.63 0 0 1 5.26 0zm8.06-8.73c0 1.03-1.29 1.8-2.99 1.8-1.7 0-2.98-.77-2.98-1.8s1.28-1.8 2.98-1.8 2.99.77 2.99 1.8zm-4.44-.37c-.3.15-.4.3-.4.37l.03.07.5-.5-.13.06zm2.9.74c.2-.1.3-.2.36-.28l-.96.49c.22-.06.43-.13.6-.21z"/></defs><g><g transform="translate(-1259 -38)"><use fill="#98c722" xlink:href="#jhhva"/></g></g></svg>