<svg xmlns="http://www.w3.org/2000/svg" xmlns:xlink="http://www.w3.org/1999/xlink" width="34" height="30" viewBox="0 0 34 30"><defs><path id="bdlqa" d="M1712.98 48.56c0 .36-.3.66-.67.66a.66.66 0 0 1-.66-.66c0-.36.3-.65.66-.65.37 0 .67.3.67.65zm1.95 25.18a.67.67 0 0 1-.53.26h-14.8c-.2 0-.4-.1-.53-.26-3.17-4.02-5.43-10.17-4.04-14.93.77-2.64 4.04-6.85 3.64-14.12a.64.64 0 0 1 .18-.49c.12-.13.3-.2.48-.2h15.34c.18 0 .36.07.48.2.13.13.2.3.18.49-.4 7.3 2.88 11.47 3.64 14.12 1.33 4.7-1.03 11.1-4.04 14.93zM1698.1 55.1a21.07 21.07 0 0 0 7.53 1.9h2.74c1.07-.07 2.13-.22 3.16-.44l2.68-.77c.58-.2 1.14-.43 1.7-.69a23.54 23.54 0 0 1-1.92-9.8H1700a23.54 23.54 0 0 1-1.92 9.8zm8.24 11.4c-3.2-2.38-6.6-5.3-10.2-6.66-.65 3.27.37 8.36 3.79 12.85h6.4zm11.5-6.65c-3.58 1.35-6.96 4.26-10.18 6.65v6.2h6.41c2.5-3.33 4.57-8.73 3.78-12.85zm-4.33-5.38a.67.67 0 0 1-.84-.42c-.3-.91-.56-1.84-.76-2.75a.65.65 0 0 1 .51-.78c.36-.07.71.15.79.5.2.87.44 1.76.73 2.63a.65.65 0 0 1-.43.82zm10.49-4.6c0 .36-.3.65-.66.65h-4.11l1.52 1.5c.26.25.26.66 0 .92a.67.67 0 0 1-.94 0l-2.65-2.61a.64.64 0 0 1 0-.92l2.65-2.61a.67.67 0 0 1 .94 0c.26.25.26.67 0 .92l-1.52 1.5h4.1c.37 0 .67.29.67.65zm-27.16.46l-2.65 2.6a.67.67 0 0 1-.94 0 .64.64 0 0 1 0-.92l1.52-1.49h-4.1a.66.66 0 0 1-.67-.65c0-.36.3-.65.66-.65h4.11l-1.52-1.5a.64.64 0 0 1 0-.92.67.67 0 0 1 .94 0l2.65 2.6c.26.26.26.67 0 .93z"/></defs><g><g transform="translate(-1690 -44)"><use fill="#98c722" xlink:href="#bdlqa"/></g></g></svg>