<svg xmlns="http://www.w3.org/2000/svg" xmlns:xlink="http://www.w3.org/1999/xlink" width="22" height="24" viewBox="0 0 22 24"><defs><path id="q5f3a" d="M1638.3 612.94a.94.94 0 0 1-.59 0c-10.71-3.47-10.54-11.7-10.42-17.71a91 91 0 0 0 .03-1.85c0-.46.4-.84.89-.84 3.83 0 6.74-1.02 9.17-3.24a.95.95 0 0 1 1.24 0c2.43 2.22 5.34 3.24 9.17 3.24.5 0 .9.38.9.84 0 .59 0 1.2.02 1.85.12 6 .29 14.24-10.42 17.71zm8.62-17.68l-.02-1.06c-3.58-.14-6.45-1.16-8.9-3.16-2.45 2-5.32 3.02-8.9 3.16l-.02 1.06c-.12 6.04-.26 12.88 8.92 16 9.18-3.12 9.04-9.96 8.92-16zm-4.58 2.86a.8.8 0 0 1 0 1.18l-4.94 4.64a.94.94 0 0 1-1.27 0l-2.47-2.32a.8.8 0 0 1 0-1.18.94.94 0 0 1 1.26 0l1.84 1.72 4.32-4.04a.94.94 0 0 1 1.26 0z"/></defs><g><g transform="translate(-1627 -589)"><use fill="#714d92" xlink:href="#q5f3a"/></g></g></svg>