<svg xmlns="http://www.w3.org/2000/svg" xmlns:xlink="http://www.w3.org/1999/xlink" width="60" height="45" viewBox="0 0 60 45"><defs><path id="kwota" d="M813.95 937.62a1.29 1.29 0 0 1-1.25 1.63h-5.26a.88.88 0 1 1 0-1.76h4.66l-2.03-7.66a1.3 1.3 0 0 1 0-.66l2.03-7.67h-4.62a.88.88 0 1 1 0-1.76h5.22a1.29 1.29 0 0 1 1.25 1.63l-2.15 8.13zm-52.6.75c0 .49-.38.88-.87.88h-5.18a1.28 1.28 0 0 1-1.25-1.63l2.15-8.12-2.15-8.13a1.29 1.29 0 0 1 1.25-1.63h5.19a.88.88 0 0 1 0 1.76h-4.6l2.04 7.66c.06.22.06.45 0 .67l-2.03 7.66h4.58c.49 0 .88.4.88.88zm39.28-10.24h-.11a.88.88 0 0 1-.87-.75 15.77 15.77 0 0 0-26.08-9.73 15.77 15.77 0 0 0-5.22 9.72.88.88 0 1 1-1.74-.23 17.53 17.53 0 0 1 28.99-10.81 17.53 17.53 0 0 1 5.79 10.81.88.88 0 0 1-.76 1zm.78 3.54a17.56 17.56 0 0 1-34.82-.01.88.88 0 1 1 1.74-.22 15.8 15.8 0 0 0 31.34.02.88.88 0 0 1 1.74.21zm3.44 3.49a3.18 3.18 0 0 0-1.02 2.9 4.95 4.95 0 0 1-3.5 5.59 3.18 3.18 0 0 0-2.18 2.18 4.96 4.96 0 0 1-5.58 3.5 3.18 3.18 0 0 0-2.9 1.02 4.95 4.95 0 0 1-6.55.74 3.18 3.18 0 0 0-3.06-.35c-2.33.96-5 .02-6.22-2.17a3.18 3.18 0 0 0-2.61-1.64 4.96 4.96 0 0 1-4.66-4.66 3.18 3.18 0 0 0-1.64-2.61 4.96 4.96 0 0 1-2.18-6.22c.42-1.02.3-2.16-.34-3.06a4.96 4.96 0 0 1 .74-6.55 3.18 3.18 0 0 0 1.02-2.9 4.96 4.96 0 0 1 3.5-5.59 3.18 3.18 0 0 0 2.18-2.18 4.96 4.96 0 0 1 5.58-3.5c1.08.18 2.17-.2 2.9-1.02a4.95 4.95 0 0 1 6.55-.74c.9.64 2.05.77 3.06.35 2.33-.96 5-.02 6.22 2.17a3.17 3.17 0 0 0 2.61 1.64 4.96 4.96 0 0 1 4.66 4.66c.06 1.1.68 2.08 1.64 2.61a4.95 4.95 0 0 1 2.17 6.22 3.18 3.18 0 0 0 .35 3.06 4.95 4.95 0 0 1-.74 6.55zm-.7-5.53a4.93 4.93 0 0 1-.53-4.75 3.2 3.2 0 0 0-1.4-4.01 4.93 4.93 0 0 1-2.55-4.04 3.2 3.2 0 0 0-3-3.01 4.93 4.93 0 0 1-4.04-2.54 3.2 3.2 0 0 0-4.02-1.4 4.93 4.93 0 0 1-4.74-.54 3.2 3.2 0 0 0-4.23.47 4.94 4.94 0 0 1-4.5 1.58 3.2 3.2 0 0 0-3.6 2.26 4.93 4.93 0 0 1-3.38 3.38 3.2 3.2 0 0 0-2.26 3.6 4.93 4.93 0 0 1-1.58 4.5 3.2 3.2 0 0 0-.47 4.23 4.93 4.93 0 0 1 .53 4.75 3.2 3.2 0 0 0 1.4 4.01 4.93 4.93 0 0 1 2.55 4.05 3.2 3.2 0 0 0 3 3c1.7.1 3.22 1.05 4.04 2.54a3.2 3.2 0 0 0 4.02 1.4 4.98 4.98 0 0 1 4.74.54 3.2 3.2 0 0 0 4.23-.47 4.92 4.92 0 0 1 4.5-1.58 3.2 3.2 0 0 0 3.6-2.26 4.93 4.93 0 0 1 3.38-3.38 3.2 3.2 0 0 0 2.26-3.6 4.93 4.93 0 0 1 1.58-4.5 3.2 3.2 0 0 0 .47-4.23z"/><path id="kwotb" d="M793.44 926.27v.73c0 .56-.23 1.06-.6 1.4.13.27.2.57.2.89v.73c0 .62-.28 1.16-.74 1.52.1.23.16.5.16.76v.74c0 .66-.34 1.25-.86 1.6.09.21.13.44.13.68v.73c0 1.07-.87 1.93-1.93 1.93h-4.77c-1.3 0-2.59-.2-3.82-.63l-2.67-.91c-.17.56-.7.97-1.3.97h-3.3c-.76 0-1.37-.61-1.37-1.37v-10.07a1.36 1.36 0 0 1 1.36-1.36l3.3.01c.41 0 .77.19 1.02.47l3.41-5.63.01-.02c.33-.5.86-.83 1.46-.88.6-.05 1.18.17 1.6.61.9.99 1.12 2.4.54 3.61l-.63 1.56h6.87c1.07 0 1.93.87 1.93 1.93zm-16.42-.07l-2.88-.02v9.65h2.88zm14.85.8v-.73c0-.2-.16-.35-.36-.35h-8.05a.79.79 0 0 1-.73-1.1l1.1-2.66.01-.04c.3-.63.2-1.37-.27-1.88a.35.35 0 0 0-.56.05l-3.72 6.13-.01.02c-.17.26-.4.46-.68.59v7.78c.05 0 .1.02.16.04l2.96 1.01c1.07.36 2.18.55 3.3.55h4.78c.2 0 .35-.16.35-.36v-.73c0-.2-.16-.35-.35-.35h-2.59a.79.79 0 1 1 0-1.58h3.32c.2 0 .36-.16.36-.35v-.74c0-.19-.16-.35-.36-.35h-3.32a.79.79 0 1 1 0-1.58h3.9c.2 0 .36-.16.36-.35v-.73c0-.2-.16-.36-.36-.36h-3.9a.79.79 0 1 1 0-1.57h4.3c.2 0 .36-.16.36-.36z"/></defs><g><g transform="translate(-754 -907)"><use fill="#98c722" xlink:href="#kwota"/></g><g transform="translate(-754 -907)"><use fill="#856ca2" xlink:href="#kwotb"/></g></g></svg>