<svg xmlns="http://www.w3.org/2000/svg" xmlns:xlink="http://www.w3.org/1999/xlink" width="36" height="44" viewBox="0 0 36 44"><defs><path id="7g8da" d="M1170 914.86v10a9.14 9.14 0 0 1-9.08 9.19h-2.7a10.5 10.5 0 0 1-2.46 1.36l1.35 6.34h4.93c.91 0 1.66.75 1.66 1.67v1.95c0 .35-.29.64-.64.64a.64.64 0 0 1-.64-.64v-1.95a.4.4 0 0 0-.38-.39h-20.08a.4.4 0 0 0-.38.4v6.89c0 .21.17.39.38.39h20.08c.2 0 .38-.18.38-.39v-1.94c0-.36.29-.65.64-.65.35 0 .64.29.64.65v1.94c0 .92-.75 1.68-1.66 1.68h-20.08c-.92 0-1.66-.76-1.66-1.68v-6.9c0-.92.74-1.67 1.66-1.67h4.93l1.34-6.34c-.88-.34-1.7-.8-2.44-1.36h-2.7c-5.02 0-9.09-4.12-9.09-9.18v-10.01c0-1.24 1-2.25 2.22-2.25h5.33v-.09h-1.19c-.91 0-1.65-.75-1.65-1.67v-1.18c0-.92.74-1.67 1.65-1.67h10.1a.64.64 0 1 1 0 1.29h-10.1c-.2 0-.38.17-.38.38v1.18c0 .2.18.38.38.38h23.28a.4.4 0 0 0 .38-.38v-1.18a.39.39 0 0 0-.38-.38h-10.2a.64.64 0 0 1-.64-.65c0-.36.29-.64.64-.64h10.2c.91 0 1.65.75 1.65 1.67v1.18c0 .92-.74 1.67-1.65 1.67h-1.2v.1h5.34c1.22 0 2.22 1 2.22 2.24zm-32.66 1.13v8.88a5.78 5.78 0 0 0 5.52 5.8 10.6 10.6 0 0 1-1.3-5.1v-9.58zm5.74 16.77h1.27c-.23-.26-.45-.52-.66-.8h-.6a7.06 7.06 0 0 1-7.02-7.1v-9.52c0-.35.28-.64.63-.64h4.85v-.8h-5.33a.95.95 0 0 0-.95.96v10c0 4.36 3.5 7.9 7.81 7.9zm11.46 3.05a10.52 10.52 0 0 1-5.09 0l-1.26 5.94h7.62zm6.63-10.25v-13.04h-18.34v13.04a9.23 9.23 0 0 0 9.17 9.27 9.23 9.23 0 0 0 9.17-9.27zm-.03 5.1a5.78 5.78 0 0 0 5.52-5.8V916h-4.22v9.57c0 1.85-.47 3.6-1.3 5.1zm7.58-5.8v-10a.95.95 0 0 0-.94-.96h-5.34v.8h4.86c.35 0 .63.29.63.64v9.53c0 3.9-3.14 7.09-7.01 7.09h-.6c-.22.28-.44.54-.67.8h1.27c4.3 0 7.8-3.54 7.8-7.9zm-9.74 22.01c0 .36-.29.65-.64.65h-12.68a.64.64 0 0 1-.64-.65c0-.36.29-.64.64-.64h12.68c.35 0 .64.28.64.64z"/></defs><g><g transform="translate(-1134 -908)"><use fill="#98c722" xlink:href="#7g8da"/></g><g transform="translate(-1134 -908)"><g fill="#856ca2" font-family="'Roboto','Roboto-Medium'" font-size="14" style="line-height:19.99999px"><text dominant-baseline="text-before-edge" font-family="Helvetica, Arial, sans-serif" transform="translate(1148 918)"><tspan style="font-kerning:normal">1</tspan></text></g></g></g></svg>